<svg width="1080" height="1080" viewBox="0 0 1080 1080" fill="none" xmlns="http://www.w3.org/2000/svg">
<path d="M717.38 732.54C654.21 739.85 594.03 754.27 535.07 778.37L500.35 778.11C516.92 770.39 532.79 764.64 550.25 759.06C608.21 740.53 668.63 730.84 729.18 731.16L717.39 732.54H717.38Z" fill="black"/>
<path d="M594.56 778.44L577.53 777.94C607.71 765.26 638.5 755.75 671.12 750.22C645.26 758.43 619.86 766.36 594.56 778.45V778.44Z" fill="black"/>
<path d="M635.519 890.518L635.519 894.138L729.789 894.154L729.789 890.534L635.519 890.518Z" fill="black"/>
<path d="M635.409 903.58L635.409 907.19L729.939 907.206L729.939 903.596L635.409 903.58Z" fill="black"/>
<path d="M290.01 807.09H218.01V809.09H290.01V807.09Z" fill="black"/>
<path d="M902.01 807.09H843.01V809.09H902.01V807.09Z" fill="black"/>
<path d="M620.44 899.31C620.44 932.95 593.17 960.22 559.53 960.22C525.89 960.22 498.62 932.95 498.62 899.31C498.62 865.67 525.89 838.4 559.53 838.4C593.17 838.4 620.44 865.67 620.44 899.31ZM614.04 899.26C614.04 869.13 589.62 844.71 559.49 844.71C529.36 844.71 504.94 869.13 504.94 899.26C504.94 929.39 529.36 953.81 559.49 953.81C589.62 953.81 614.04 929.39 614.04 899.26Z" fill="black"/>
<path d="M614.04 899.26C614.04 929.39 589.62 953.81 559.49 953.81C529.36 953.81 504.94 929.39 504.94 899.26C504.94 869.13 529.36 844.71 559.49 844.71C589.62 844.71 614.04 869.13 614.04 899.26ZM610.48 899.27C610.48 871.11 587.65 848.27 559.48 848.27C531.31 848.27 508.48 871.1 508.48 899.27C508.48 927.44 531.31 950.27 559.48 950.27C587.65 950.27 610.48 927.44 610.48 899.27Z" fill="white"/>
<path d="M610.48 899.27C610.48 927.43 587.65 950.27 559.48 950.27C531.31 950.27 508.48 927.44 508.48 899.27C508.48 871.1 531.31 848.27 559.48 848.27C587.65 848.27 610.48 871.1 610.48 899.27ZM549.37 915.87C557.06 915.82 562.38 909.82 562.91 903.59C563.5 896.7 560.08 891.38 552.49 888.86C558.18 886.36 561.11 882.38 560.28 876.55C559.74 872.75 555.98 867.35 550.69 867.28L524.59 866.95C527.5 869.49 529.42 871.56 529.41 874.97L529.3 911.09L524.69 916.03L549.38 915.87H549.37ZM590.75 898.68L593.67 887.71C582.96 882.13 570.03 882.42 561.73 890.75L565.82 899.39C567.56 893.41 572.53 889.55 577.62 889.38C583.93 889.17 587.35 891.63 590.75 898.68ZM556.44 917.64C559.3 930.65 573.41 937.84 585.02 932.03C587.61 930.96 590.05 930.4 593.46 929.95L593.43 913.7C593.43 912.52 595.6 910.01 596.59 908.52L579.43 908.55C579.75 910.99 582.1 911.71 584.29 912.15C585.42 916.06 585.6 922.49 584.75 926.53C579.91 930.08 573.02 929.12 569.27 924.8C565.52 920.48 564.62 914.21 564.74 909.23L556.44 917.64Z" fill="black"/>
<path d="M549.37 915.87L524.68 916.03L529.29 911.09L529.4 874.97C529.41 871.55 527.5 869.49 524.58 866.95L550.68 867.28C555.97 867.35 559.73 872.75 560.27 876.55C561.1 882.38 558.18 886.36 552.48 888.86C560.07 891.38 563.49 896.7 562.9 903.59C562.37 909.82 557.05 915.82 549.36 915.87H549.37ZM548.43 886.06C552.8 883.22 552.79 875.85 548.96 873.14C546 871.04 541.1 871.17 537.89 871.54L537.91 887.68C540.65 887.86 545.6 887.9 548.44 886.06H548.43ZM550 909.54C555.61 906.25 555.48 897 550.23 893.89C546.81 891.86 541.44 892.2 537.98 892.44L537.94 910.9C541.86 911.15 546.57 911.54 549.99 909.54H550Z" fill="white"/>
<path d="M556.44 917.64L564.74 909.23C564.62 914.21 565.57 920.54 569.27 924.8C572.97 929.06 579.91 930.08 584.75 926.53C585.6 922.49 585.43 916.06 584.29 912.15C582.1 911.72 579.75 910.99 579.43 908.55L596.59 908.52C595.61 910.01 593.43 912.53 593.43 913.7L593.46 929.95C590.05 930.4 587.61 930.95 585.02 932.03C573.41 937.85 559.3 930.65 556.44 917.64Z" fill="white"/>
<path d="M590.75 898.68C587.36 891.64 583.93 889.17 577.62 889.38C572.52 889.55 567.56 893.41 565.82 899.39L561.73 890.75C570.03 882.42 582.96 882.13 593.67 887.71L590.75 898.68Z" fill="white"/>
<path d="M550 909.54C546.57 911.55 541.86 911.16 537.95 910.9L537.99 892.44C541.45 892.2 546.82 891.86 550.24 893.89C555.49 897 555.62 906.25 550.01 909.54H550Z" fill="black"/>
<path d="M548.43 886.06C545.6 887.9 540.65 887.86 537.9 887.68L537.88 871.54C541.1 871.17 545.99 871.04 548.95 873.14C552.78 875.86 552.79 883.22 548.42 886.06H548.43Z" fill="black"/>
<path d="M449.57 755.13C426.85 761.8 406.26 769.27 385.18 778.48L355.28 777.92C409.61 755.42 465.69 739.7 523.55 729.63C580.82 719.67 637.81 714.38 695.92 714.8C724.15 715.01 750.95 716.75 778.1 720.68L757.92 720.42C654.56 719.09 549.93 725.68 449.57 755.12V755.13Z" fill="black"/>
<path d="M349.11 630.75C356.55 623.34 364.31 616.57 373.33 610.27C398.09 592.97 424.06 578.74 451.37 565.49C477.44 552.83 502.86 541.15 530.08 531.2L612.14 501.22C639.19 491.34 665.16 481.39 691.17 469.31C705.69 462.57 718.8 454.98 732.02 446.12C744.8 437.56 756.03 427.57 764.98 415.16C772.5 404.73 775.11 391.98 769.95 380.07C758.03 352.53 697.12 349.23 666.79 349.28L668.05 339.94C710.75 340.09 753.96 343.22 792.01 363.03C826.3 380.88 844.53 411.9 834.13 450.33C824.18 487.08 790.37 515.25 757.19 532.41C741.33 534.32 725.9 537.76 713.27 547.36L696.14 560.38L630.1 574.29L519.27 594.27C487.13 600.06 456.4 606.86 424.8 614.77C399.78 621.61 375.77 627.12 349.1 630.75H349.11ZM379.73 618.75C414.17 603.66 446.9 589.62 482.41 579.49L585.13 550.19C639.6 534.65 697.83 515.19 746.56 486.68C762.06 477.61 776.04 467.36 787.95 454.1C805.96 434.05 817.2 406.33 799.56 384.55C794.69 378.53 788.88 373.55 781.85 369.82C788.88 378.63 794.46 387.72 794.3 399.12C794.12 411.55 789.25 423 781.44 432.56C770.77 445.62 758.02 455.86 743.66 464.76C706.12 488.03 661.01 503.78 618.91 518.02L532.26 547.34C492.17 560.9 454.02 577.33 416.23 596.12C403.73 603.51 390.65 608.44 379.73 618.76V618.75ZM776.72 480.85C791.69 468.55 809.41 447.64 810.86 427.35C799.48 462.26 766.48 485.68 732.77 502.98C700.84 519.37 667.53 531.01 633.91 543.05C681.11 532.18 739.71 511.25 776.72 480.85Z" fill="black"/>
<path d="M763.34 401.98C760.55 408.49 756.47 414.13 751.7 419.37C743.83 414.54 736.25 411.24 727.3 408.72C705.18 403.05 683.11 401.81 659.52 402.39L665.73 355.56C688.19 355.59 710.43 357.08 732.27 362.69C741.08 365.36 749.16 368.3 756.09 373.85C764.74 380.77 767.92 391.26 763.33 401.98H763.34Z" fill="black"/>
<path d="M420.06 433.35C424.42 428.6 428.5 423.73 430.78 417.79L447.13 375.23C449.62 368.74 450.93 362.04 452.18 355.12C454.25 343.62 451.33 332.28 443.74 323.48C425.49 302.31 429.04 271.84 452.35 256.34C458.91 251.98 463.6 244.78 464.88 237.15C466.49 227.57 461.4 219.86 452.72 216.32C451.17 215.69 449.64 212.3 450.35 211C451.2 209.44 453.47 208.43 455.69 208.27C473.09 216.16 478.67 231.9 471.5 250.8C488.5 250.5 503.77 259.98 510.24 275.78C519.98 299.56 506.71 325.05 482.74 332.75C473.57 335.7 468.05 342.98 465.91 352.13L444.37 444.4L439.56 466.57L420.07 433.36L420.06 433.35ZM503.06 292.3C503.06 275.54 489.47 261.95 472.71 261.95C455.95 261.95 442.36 275.54 442.36 292.3C442.36 309.06 455.95 322.65 472.71 322.65C489.47 322.65 503.06 309.06 503.06 292.3Z" fill="black"/>
<path d="M380.96 496.5C374.88 490 355.97 496.69 344.23 501.47C305.93 517.04 271.64 538.77 239 564.35C261.42 538.85 287.17 517.9 315.14 499.28L361.4 470.52C369.15 465.7 374.64 458.81 374.07 449.04L370.08 441.53L340.92 457.05C299.67 479.01 265.22 508.23 233.85 543.45C265.82 493.16 318.65 455.63 372.2 430.46L393.79 471.3C395.99 475.46 398.03 478.65 396.59 483.58L389.81 518.12C347.08 539.28 307.43 563.85 266.31 590.24C280.73 575.78 297.77 563.94 315.61 552.67C335.65 540.01 355.71 528.88 376.49 517.66C381.59 514.9 384.52 511.46 384.12 504.8C383.96 502.2 382.68 498.31 380.98 496.49L380.96 496.5ZM310.77 510.09C336.72 497.55 361.29 485.97 388.26 474.6L383.75 466.73C366.08 474.62 350.17 483.57 334.07 494.11C326.05 499.36 318.25 504.04 310.78 510.09H310.77Z" fill="black"/>
<path d="M451.11 440.45L461.69 394.48C486.62 385.1 511.95 378.04 538.15 371.25L531.12 418.48C504.43 424.34 478.66 431.24 451.11 440.46V440.45Z" fill="black"/>
<path d="M458.49 488.03C464.11 498.9 469.47 508.71 469.4 521.35L443.23 473.67L448.81 449.83C475.47 440.96 501.39 433.55 529.69 427.05L523.17 468.68C501.09 474.26 480.84 480.28 458.48 488.02L458.49 488.03Z" fill="black"/>
<path d="M413.99 506.55C415.94 509.34 416.24 511.89 415.1 515.26L393.33 580.2C390.94 587.33 387.14 593.47 379.42 596.47L400.23 493.15C398.65 488.61 397.64 484.36 398.55 479.79L410.43 498.99C413.06 503.23 424.25 503.95 424.32 505.24L424.55 509.28L413.98 506.54L413.99 506.55Z" fill="black"/>
<path d="M299.41 547.97C279.11 561.72 261.14 575.64 241.55 590.53C256.9 570.68 275.27 555.46 294.84 540.86C318.03 526.21 341.43 512.97 368.54 505.01L299.42 547.97H299.41Z" fill="black"/>
<path d="M417.76 427.36L409.96 416.64L427.16 409.55C424.64 416.6 422.41 420.83 417.76 427.36Z" fill="black"/>
<path d="M434 566.27C442 559.4 450.78 554.64 460.21 548.46L430.52 505.35L444.71 503.78L420.86 498.17C418.4 497.59 414.56 496.17 413.28 493.85L389.77 451.17C362.88 399.12 338.19 346.77 313.6 293.59C312.76 291.78 313.64 288.92 314.91 288.4C316.56 287.72 318.92 288.53 319.97 290.11L360.14 351.03L428.99 457.86L474.04 540.82L522.55 517.53L554.33 313C547.83 307.79 545.86 301.55 547.51 293.57C551.16 275.94 547.25 266.5 569.21 257.41C570.91 253.92 572.94 250.4 576.19 247.5C567.35 237.02 563.17 223.45 565.04 208.86C569.38 174.88 605.6 153.37 637.59 165.33C654.78 171.75 666.75 186.55 670.39 202.69C674.76 222.06 668.45 240.68 654.36 253.38C659.09 257.62 659.91 262.52 661.76 267.37C667.15 272.34 675.53 277.69 675.58 286.13C675.63 295.5 674.31 304.83 673.07 314.14C672.4 319.19 667.4 322.69 663.32 325.77L643.18 473.24L650.33 470.13L652.24 454.62L685.17 454.05L697.36 448.18C682.47 446.13 668.63 446.63 653.57 447.33L658.64 410.41C687.49 410.12 720.17 410.46 747.09 424.1C730.72 438.66 713.41 449.8 694.22 459.27C670.76 470.84 647.27 480.69 622.68 489.6L579.19 505.35C529.62 523.3 481.67 543.05 434.01 566.26L434 566.27ZM590.06 194.48C589.33 202.83 595.6 208.13 603.02 207.75C611.61 207.31 619.42 201.36 622.01 193.23C624.3 186.03 620.89 179.53 613.75 177.3C618.89 174.31 623.83 173.3 629.34 172.14C611.93 167.87 593.91 174.4 583.08 188.05C571.02 203.25 569.94 224.27 581.09 239.85C581.81 240.86 583.17 242.25 583.96 242.62C584.75 242.99 586.63 242.14 588.14 241.51C579.87 232.57 575.87 221.31 577.78 208.65C579.36 198.21 585.45 187.33 596.05 181.88C593.59 185.83 590.48 189.65 590.06 194.48ZM642.58 245.35C645.19 247.21 646.32 248.1 647 247.63L649.82 245.69C668.55 228.72 667.58 197.08 647.06 181.73C657.21 194.64 662.08 209.88 657.38 225.41C654.78 234.09 649.6 240.51 642.57 245.35H642.58ZM590.02 225.5C593.23 216.19 591.1 207.78 586.15 200.81C582.27 209.3 582.15 219.9 590.02 225.5ZM623.04 238.26C630.33 241.87 635.82 239.88 641.09 235.99C649.6 229.7 653.83 219.3 653.68 208.95C648.07 226.15 639.31 235.77 623.04 238.27V238.26ZM610.44 248.81C621.86 248.88 632.53 250.55 641.83 256.33L651.16 262.13C649.02 256.95 644.88 254.29 640.04 251.9C625.89 244.9 609.87 243.16 594.29 246.39C588.22 247.65 582.92 250.26 578.96 255.05L590.33 251.41C590.75 251.28 592.35 250.97 592.41 251.4L592.57 252.66L608.1 252.28L610.45 248.81H610.44ZM656.29 301.68C661.5 305 663.29 309.74 664.78 315.44C665.78 305.36 668.47 295.31 666.94 285.69C665.8 278.48 657.28 273.22 651.04 269.98C626.28 257.14 597.07 255.14 571.11 265C565.85 267 559.69 271.12 558.46 276.35C556.4 285.06 555.28 293.28 554.76 302.53C557.19 297.99 559.35 294.3 564.11 292.09C591.19 279.53 630.54 285.27 656.28 301.68H656.29ZM627.05 456.92L631.98 419.77C612.74 427.87 594.97 436.64 576.99 447.23L583.42 401.74C601.17 390.82 618.65 382.21 638.28 375.23L643.12 338.29C623.33 345.98 606.21 354.06 588.48 363.99L595.18 318.59L621.52 304.05L599.25 299.55C607.87 296.38 616.01 298.24 623.71 300.58C626.12 301.31 627.01 302.14 629.58 300.05L620.05 297.94C604.2 294.43 588.05 293.91 572.41 299.68L567.35 324.29C566.81 316.33 567.57 309.98 568.03 301.51C565.26 302.95 563.96 305.43 563.49 308.51L551.92 384.02L531.94 514.06C534.84 513.84 536.34 511.56 536.79 508.67L549.48 427.94C557.28 420.14 564.81 413.72 573.99 407.45L567.2 453.84L548.31 469.43L542.37 508.71C568.66 485.06 595.77 470.3 627.02 456.91L627.05 456.92ZM634.59 472.88L655.19 320.36C655.69 316.63 656.25 314.28 652.22 311.78L629.52 477.79C633.2 477.88 634.1 476.5 634.59 472.88ZM425.12 464.97C425.12 459.58 420.75 455.21 415.36 455.21C409.97 455.21 405.6 459.58 405.6 464.97C405.6 470.36 409.97 474.73 415.36 474.73C420.75 474.73 425.12 470.36 425.12 464.97Z" fill="black"/>
<path d="M579.07 369.78L555.1 390.59L562.33 343.36C569.31 336.45 576.51 330.63 585.7 324.76L579.06 369.78H579.07Z" fill="black"/>
<path d="M651.02 294.52C633.36 285.22 614.75 281.34 594.6 281.9C599.44 279.05 602.63 273.15 600.75 268.59C600.06 266.92 597.23 265.1 595.77 264.02C615.76 261.43 635.19 265.39 652.86 274.23C665.95 280.78 662.99 288.45 661.97 302.01L651.03 294.51L651.02 294.52Z" fill="black"/>
<path d="M575.95 284.45C570.6 285.81 565.31 287.82 559.92 290.78C560.74 285.98 561.08 279.71 563.04 275.15C565.78 268.73 573.79 267.06 580.01 266.19C576.34 269.25 573 272.26 571.68 277.14C570.91 279.97 572.77 282.59 575.96 284.46L575.95 284.45Z" fill="black"/>
<path d="M415.26 471.38C418.839 471.38 421.74 468.479 421.74 464.9C421.74 461.321 418.839 458.42 415.26 458.42C411.681 458.42 408.78 461.321 408.78 464.9C408.78 468.479 411.681 471.38 415.26 471.38Z" fill="black"/>
<path d="M199.26 749.9C206.16 748.1 208.93 744.29 208.98 738.05L209.77 635.78L204.96 634.45L200.74 628.79L200.76 611.81L262.57 601.62C273.32 599.85 285.16 601.74 293.88 608.19C314.02 623.08 316.38 651.35 301.69 671.17C315.75 686.94 318.39 697.03 316.25 718.38L334.56 660.72C335.25 658.54 334.43 656.63 332.18 655.48L332.27 640.04L367.77 635.38L372.43 640.82L395.44 713.53L398.8 713.42C399.57 713.4 400.21 711 400.34 710.17L400.78 654.34L395.07 647.17L394.97 631.72L434.79 626.65C443.48 625.54 453.05 626.42 459.92 632.26C464.19 635.9 468.48 641.06 470.82 646.27C477.35 660.8 472.72 677.85 460.51 688.18L468.7 703.66C470.09 706.29 476.75 704.11 476.79 701.06L477.36 650.09C477.42 644.87 476.01 640.4 471.53 637.51L471.88 622.09L516.85 616.95C528.45 615.62 537.2 621.88 543.35 630.92C550.27 641.08 550.01 654.13 543.99 664.97L551.24 676.56L551.57 635.72C551.59 632.64 548.29 629.4 546.12 628.35L546.28 613.08L609.99 605.75C611.38 605.59 613.94 607.28 615.17 605.1L656.56 600.63C669.06 599.28 679.36 605.09 686.14 616.33C688.71 599.9 693.63 585.77 702.9 572.99C720.28 549.03 749.28 537.12 778.44 542.68C793.3 545.52 806.23 553.09 815.61 564.97L791.03 603.37L813.45 601.01C818.06 588.99 824.98 578.64 835.69 570.59C851.74 558.52 874.09 554.08 892.56 563.71C909.19 572.38 919.11 590.41 920.37 608.75C921.5 625.23 918.05 641.05 910.23 655.17C898.18 676.93 875.04 688.64 850.66 685.64C838.33 684.13 829.26 677.59 821.99 668.05C815.4 659.4 811.09 650.68 809.19 639.84L808.82 686.1L787.41 688.52C773.88 700.2 756.12 705.77 738.3 703.83C723.83 702.25 712.09 694.97 703.18 683.86C695.59 674.39 689.89 664.15 687.29 651.64L677.92 662.67L686.16 678.2C689.58 679.16 695.23 681.47 695.31 685.92L695.6 701.48L672.01 703.67C666.62 704.17 662.18 701.21 659.1 696.9L658.67 705.2L549.22 717.78L546.69 714.01C545.76 712.62 544.98 710.36 544.48 708.11C538.99 714.66 530.87 719.58 521.55 720.81L457.11 729.29C450.53 730.16 445.56 727.64 441.6 722.44L441.05 731.31L360.15 742C359.31 739.63 357.99 737.47 356.44 735.64L356.13 721.34L348.06 722.76L351.31 728.26L351.02 743.57L311.45 749.35C310.7 746.44 310 745.23 308.29 743.42L307.49 737.7C297.66 751.29 283.32 759.78 266.37 762.57L203.5 772.95L199.62 767.13L199.27 749.91L199.26 749.9ZM751.83 633.38L766.69 632.03V654.52C760.78 661.72 750.69 664.26 742.3 660.78C723.72 653.07 723.09 607.83 739.71 586.79C745.68 579.23 755.26 574.69 764.82 577.22C771.84 579.08 774.8 586.24 775 593.15C776.85 595.32 781.63 596.38 784.28 595.54L806.52 560.93C796.14 551.4 783.1 546.25 768.98 545.36C741.29 543.61 716.35 557.59 702.16 581.36C686.63 607.37 683.99 648.38 700.54 673.62C718.88 701.59 758.6 701.15 782.66 678.9C789.29 679.63 795.06 679.28 801.28 678.32L801.37 628.28C801.37 623.07 805.09 619.71 810.12 618.18L810.3 605.24L751.09 612.24L751.84 633.38H751.83ZM842.23 675.36C863.69 680.93 885.96 672.22 898.63 654.74C911.73 636.66 915.95 613.94 910.75 592.41C906.63 575.38 892.61 564 875.39 562.66C855.93 561.14 838.1 569.8 826.26 585.51C813.93 601.87 810.53 622.57 814.22 642.89C816.94 657.83 826.58 671.31 842.22 675.37L842.23 675.36ZM752.52 642.85L748.17 637.5L747.1 608.78L783.21 604.41C766.51 599.76 772.71 590.49 769.09 586.84C764.72 582.44 749.22 586.46 742.4 600.61C735.69 614.54 734.01 630.59 737.14 645.88C737.92 649.68 739.99 655 743.17 656.71C749.88 660.31 757.85 658.01 762.87 652.97V641.58L752.53 642.86L752.52 642.85ZM646.63 665.94L657.36 687.71C659.82 692.56 664.45 695.33 669.97 694.78L688.01 692.98L687.96 683.46C683.94 682.55 681.36 680.68 679.72 677.44L668.9 656.03C679.02 650.16 683.74 639.65 683.57 628.06C683.36 613.86 672.61 602.85 657.85 604.38L617.48 608.57L617.41 617.16C619.8 618.3 621.29 619.09 622.9 620.36L622.47 685.16C622.45 687.85 619.36 689.97 616.97 691.22L616.41 700.51L651.07 696.81C651.65 694.37 651.97 689.52 650.39 688.22C648.17 686.97 646.02 685.25 646.08 683.34L646.64 665.93L646.63 665.94ZM265.21 752.81C276.6 750.83 285.87 745.32 294.07 738.17C307.33 724.88 312.43 705.88 307.28 687.81C304.83 679.21 298.98 673.15 290.37 668.75C301.07 658.44 305.81 644.04 302.81 629.3C298.93 610.27 280.65 602.32 262.24 605.41L204.84 615.05L204.75 626.01C210.08 626.11 213.7 629.54 213.66 634.58L212.7 740.83C212.65 746.43 208.08 750.07 203.52 752.53V763.52L265.23 752.79L265.21 752.81ZM590.49 666.31L593.13 671.49L602.67 670.72L602.51 640.73L593.07 641.87C592.28 643.28 590.69 647.11 589.24 647.3L579.78 648.55L580.13 631.49L591.03 630.28C595.44 629.79 598.89 632.87 599.89 637.7L610.25 636.79L608.87 609.66L549.86 616.55L550.04 624.95C554 625.51 555.71 627.64 555.68 631.14L555.12 690.08C555.08 694.49 553.19 697.42 548.76 699.05L548.96 708.39L610.23 701.18L613.69 672.66L603.56 673.47C600.64 680.52 595.25 684.45 587.97 685.06L579.51 685.77L579.84 667.1L590.47 666.3L590.49 666.31ZM475.11 717.39L517.67 711.95C535.57 709.66 546.96 693.73 543.99 676.17C542.88 669.63 539.47 664.73 533.82 661.35C542.45 651.59 543.77 636.68 535.06 627.02C530.41 621.87 521.94 620.01 515.09 620.8L475.79 625.35V634.47C478.83 635.1 481.33 636.63 481.31 639.04L480.64 700.91C480.6 704.55 478.47 706.74 474.72 707.91L475.13 717.39H475.11ZM610.42 668.94L617.01 668.3L618.87 671.25L619.03 624.5L617.4 623.11C617.14 622.89 616.81 624.85 616.83 625.19L617.68 635.15L618.14 644.93L610.55 645.86L610.4 668.94H610.42ZM428.85 691.16L440.19 713.95C442.59 718.77 447.81 721 452.99 720.32L470.68 717.98L470.45 708.79C468.04 708.08 464.46 706.58 463.52 704.76L451.7 681.8C461.64 675.41 465.94 665.63 466.01 654.02C466.09 640.1 455.47 628.54 440.79 630.23L398.94 635.04L398.85 643.87C402.39 644.33 404.64 646.41 404.62 649.47L404.19 710.11C404.16 713.71 402.03 716.36 398.6 717.98L398.46 727.51L433.79 722.79L433.7 713.51C431.53 713.4 428.3 711.74 428.34 710.02L428.85 691.16ZM338.89 725.41L342.2 713.68L362.06 711.08C363 713.35 364.35 717.75 364.22 719.88C364.15 721 361.28 722.81 360.2 723.51L360.28 732.46L395.87 727.86L395.63 718.49C392.47 717.84 389.9 716.11 388.91 712.96L365.75 639.48L336.1 643.5L335.96 651.39L339.42 653.2C340.1 653.56 339.87 655.78 339.81 656.83L318.91 722.78C317.29 726.29 315.42 728.46 311.8 730.39L311.41 739.76L343.68 735.1V725.56L338.87 725.41H338.89Z" fill="black"/>
<path d="M265.21 752.81L203.49 763.54V752.55C208.06 750.09 212.63 746.45 212.68 740.85L213.64 634.6C213.69 629.56 210.07 626.13 204.73 626.03L204.82 615.07L262.22 605.43C280.63 602.34 298.92 610.29 302.79 629.32C305.79 644.06 301.06 658.47 290.35 668.77C298.96 673.16 304.81 679.22 307.26 687.83C312.41 705.9 307.32 724.9 294.05 738.19C285.85 745.34 276.58 750.85 265.19 752.83L265.21 752.81ZM262.86 748.48C273.82 746.58 282.73 741.57 290.7 734.7C303.62 721.78 308.35 702.15 300.95 685.13C297.37 676.91 289.03 672.65 280.67 670.47C294.75 661.03 301.39 645.45 297.7 629.46C293.62 611.76 275.92 607.73 257.86 610.84L209.33 619.2L209.93 622.37C214.83 623.7 218.44 628.39 218.39 634.19L217.5 741.42C217.41 751.86 205.82 753.46 208.87 757.84L262.87 748.47L262.86 748.48Z" fill="white"/>
<path d="M590.49 666.31L579.86 667.11L579.53 685.78L587.99 685.07C595.27 684.46 600.66 680.53 603.58 673.48L613.71 672.67L610.25 701.19L548.98 708.4L548.78 699.06C553.21 697.43 555.1 694.5 555.14 690.09L555.7 631.15C555.73 627.66 554.02 625.53 550.06 624.96L549.88 616.56L608.89 609.67L610.27 636.8L599.91 637.71C598.91 632.88 595.46 629.8 591.05 630.29L580.15 631.5L579.8 648.56L589.26 647.31C590.7 647.12 592.3 643.29 593.09 641.88L602.53 640.74L602.69 670.73L593.15 671.5L590.51 666.32L590.49 666.31ZM575.28 663.45L587.16 662.1C591.34 661.62 593.57 664 597.99 667.87L597.91 644.26C594.87 646.39 593.01 650.63 591.04 651.08L575.28 653.33L575.43 627.59L591.08 625.85C595.56 625.35 599.39 627.97 601.77 631.25L603.44 633.55C603.8 634.04 605.81 632.36 605.77 631.73L604.61 614.48L553.23 620.39C558.06 624.33 559.98 626.24 559.94 631.03L559.44 692.17C559.4 696.86 555.75 699.21 552.37 703.63L606.19 697.31L608.89 677.56C604.29 675.62 603.78 687.43 590.84 688.9L574.87 690.72L575.3 663.44L575.28 663.45Z" fill="white"/>
<path d="M428.85 691.16L428.34 710.02C428.29 711.74 431.53 713.39 433.7 713.51L433.79 722.79L398.46 727.51L398.6 717.98C402.04 716.37 404.17 713.71 404.19 710.11L404.62 649.47C404.64 646.41 402.39 644.33 398.85 643.87L398.94 635.04L440.79 630.23C455.47 628.54 466.1 640.1 466.01 654.02C465.94 665.62 461.64 675.41 451.7 681.8L463.52 704.76C464.46 706.58 468.04 708.08 470.45 708.79L470.68 717.98L452.99 720.32C447.81 721 442.59 718.77 440.19 713.95L428.85 691.16ZM430.61 684.52L443.77 711.43C445.25 714.46 449.55 716.54 452.81 716.05L467.4 713.88L460.22 707.85L445.66 680.22C460.23 673.13 465.95 655.8 457.82 642.23C454.43 636.56 446.52 633.64 440.04 634.45L402.12 639.18C406.54 642.87 408.96 644.74 408.92 649.07L408.33 713.18C408.3 716.4 403.81 718.7 402.39 722.62L430.43 718.63L424.24 712.83L424.27 685.12L430.61 684.52Z" fill="white"/>
<path d="M646.63 665.94L646.07 683.35C646.01 685.25 648.16 686.98 650.38 688.23C651.95 689.53 651.63 694.39 651.06 696.82L616.4 700.52L616.96 691.23C619.35 689.98 622.44 687.86 622.46 685.17L622.89 620.37C621.28 619.1 619.79 618.31 617.4 617.17L617.47 608.58L657.84 604.39C672.6 602.86 683.35 613.87 683.56 628.07C683.73 639.65 679.01 650.17 668.89 656.04L679.71 677.45C681.35 680.69 683.93 682.56 687.95 683.47L688 692.99L669.96 694.79C664.44 695.34 659.8 692.56 657.35 687.72L646.62 665.95L646.63 665.94ZM648.36 658.92L661.29 685.89C662.53 688.48 667.06 690.92 669.76 690.58L684.77 688.65C678.9 684.06 676.3 680.9 673.62 675.43L663.26 654.29C674.79 649.29 679.72 638.6 679.09 627.03C678.49 616.12 670.41 607.49 658.83 608.7L620.52 612.7C624.34 615.54 627.18 617.89 627.14 622.06L626.58 684.73C626.54 689.25 623.8 691.32 620.02 695.87L648.07 692.77C643.7 689.3 641.65 687.44 641.67 683.23L641.8 659.15L648.35 658.93L648.36 658.92Z" fill="white"/>
<path d="M338.89 725.41L343.7 725.56V735.1L311.43 739.76L311.82 730.39C315.44 728.46 317.31 726.3 318.93 722.78L339.83 656.83C339.89 655.78 340.12 653.56 339.44 653.2L335.98 651.39L336.12 643.5L365.77 639.48L388.93 712.96C389.92 716.11 392.49 717.85 395.65 718.49L395.89 727.86L360.3 732.46L360.22 723.51C361.3 722.81 364.17 720.99 364.24 719.88C364.38 717.74 363.03 713.35 362.08 711.08L342.22 713.68L338.91 725.41H338.89ZM338.58 709.71L365.26 706.12L368.8 718.64C369.55 721.28 366.04 724.37 363.63 727.59L392.09 723.87C389.94 720.73 386.16 718.79 385.44 716.52L362.44 644.01L339.45 647.45C343.13 650.53 345.54 652.61 344.37 656.3L323.19 723.19C321.61 728.17 318.91 730.34 314.66 734.86L340.38 730.95C336.8 727.8 334.21 725.58 335.07 722.43L338.57 709.7L338.58 709.71Z" fill="white"/>
<path d="M475.11 717.39L474.7 707.91C478.45 706.74 480.58 704.55 480.62 700.91L481.29 639.04C481.32 636.63 478.81 635.1 475.77 634.47V625.35L515.08 620.8C521.94 620.01 530.4 621.87 535.05 627.02C543.76 636.67 542.44 651.59 533.81 661.35C539.46 664.73 542.87 669.63 543.98 676.17C546.96 693.73 535.56 709.66 517.66 711.95L475.1 717.39H475.11ZM517.77 707.41C532.33 705.54 541.03 692.94 539.98 679.12C539.34 670.75 534.43 664.86 525.5 662.7C535.72 656.09 539.96 643.05 533.56 632.5C530.15 626.89 522.57 624.24 516 625.03L479 629.44C483.16 632.89 485.62 635.11 485.58 639.5L485.05 698.09C484.99 704.27 483.96 707.25 478.22 712.5L517.77 707.42V707.41Z" fill="white"/>
<path d="M262.86 748.48L208.86 757.85C205.81 753.47 217.4 751.87 217.49 741.43L218.38 634.2C218.43 628.41 214.82 623.72 209.92 622.38L209.32 619.21L257.85 610.85C275.91 607.74 293.61 611.77 297.69 629.47C301.38 645.46 294.74 661.04 280.66 670.48C289.03 672.65 297.37 676.91 300.94 685.14C308.34 702.15 303.61 721.78 290.69 734.71C282.73 741.58 273.81 746.59 262.85 748.49L262.86 748.48ZM255.33 668.86C269.57 666.66 277.16 654.59 276.33 641.03C275.79 632.19 269.96 624.21 260.71 625.58L240.98 628.51L240.79 671.11L255.34 668.86H255.33ZM258.21 733.72C273.52 730.78 281.69 717.02 280.69 702.13C280.31 696.56 278.41 691.03 274.73 687.61C270.83 683.97 264.5 682.05 259.03 682.92L240.67 685.84L240.25 737.17L258.21 733.72Z" fill="black"/>
<path d="M575.28 663.45L574.85 690.73L590.82 688.91C603.75 687.44 604.26 675.62 608.87 677.57L606.17 697.32L552.35 703.64C555.74 699.22 559.39 696.87 559.42 692.18L559.92 631.04C559.96 626.24 558.04 624.34 553.21 620.4L604.59 614.49L605.75 631.74C605.79 632.37 603.78 634.05 603.42 633.56L601.75 631.26C599.37 627.98 595.53 625.36 591.06 625.86L575.41 627.6L575.26 653.34L591.02 651.09C592.99 650.64 594.85 646.4 597.89 644.27L597.97 667.88C593.56 664.01 591.32 661.63 587.14 662.11L575.26 663.46L575.28 663.45Z" fill="black"/>
<path d="M430.61 684.52L424.27 685.12L424.24 712.83L430.43 718.63L402.39 722.62C403.82 718.7 408.3 716.4 408.33 713.18L408.92 649.07C408.96 644.74 406.54 642.87 402.12 639.18L440.04 634.45C446.51 633.64 454.42 636.57 457.82 642.23C465.95 655.8 460.22 673.13 445.66 680.22L460.22 707.85L467.4 713.88L452.81 716.05C449.55 716.54 445.25 714.45 443.77 711.43L430.61 684.52ZM436.41 673.05C443.67 670.25 445.77 662.99 445.6 656.29C445.47 651.08 442.65 644.62 436.89 645.04L424.42 645.94L424.29 675.31C427.92 674.91 432.67 674.5 436.41 673.05Z" fill="black"/>
<path d="M648.36 658.92L641.81 659.14L641.68 683.22C641.66 687.43 643.72 689.3 648.08 692.76L620.03 695.86C623.81 691.3 626.55 689.24 626.59 684.72L627.15 622.05C627.19 617.89 624.36 615.53 620.53 612.69L658.84 608.69C670.42 607.48 678.5 616.1 679.1 627.02C679.73 638.59 674.8 649.29 663.27 654.28L673.63 675.42C676.31 680.89 678.91 684.06 684.78 688.64L669.77 690.57C667.07 690.92 662.55 688.48 661.3 685.88L648.37 658.91L648.36 658.92ZM656.3 646.04C662.39 642.57 663.46 636.13 663.34 630.09C663.2 623.44 658.94 618.28 651.98 618.95L642.3 619.89L642.09 649.34C646.7 649.14 652.08 648.43 656.29 646.04H656.3Z" fill="black"/>
<path d="M338.58 709.71L335.08 722.44C334.21 725.6 336.8 727.81 340.39 730.96L314.67 734.87C318.91 730.34 321.62 728.17 323.2 723.2L344.38 656.31C345.55 652.62 343.14 650.54 339.46 647.46L362.45 644.02L385.45 716.53C386.17 718.8 389.95 720.73 392.1 723.88L363.64 727.6C366.05 724.38 369.55 721.3 368.81 718.65L365.27 706.13L338.59 709.72L338.58 709.71ZM362.37 696.62L352.52 665.52L341.82 699.35L362.37 696.62Z" fill="black"/>
<path d="M517.77 707.41L478.22 712.49C483.96 707.24 485 704.26 485.05 698.08L485.58 639.49C485.62 635.1 483.16 632.89 479 629.43L516 625.02C522.58 624.24 530.16 626.88 533.56 632.49C539.96 643.04 535.72 656.09 525.5 662.69C534.43 664.86 539.34 670.74 539.98 679.11C541.03 692.92 532.34 705.53 517.77 707.4V707.41ZM516.83 657.45C521.19 654.04 521.6 647.89 521.02 643.21C520.37 637.92 516.18 634.71 511.03 635.25L500.9 636.3L500.79 661.78C505.87 661.56 512.2 661.09 516.84 657.46L516.83 657.45ZM514.25 697.93C521.45 695.67 524 688.71 523.92 682.11C523.84 675.48 519.02 669.61 511.99 670.36L500.67 671.57L500.47 699.98C504.79 699.74 509.81 699.31 514.24 697.92L514.25 697.93Z" fill="black"/>
<path d="M258.21 733.72L240.25 737.17L240.67 685.84L259.03 682.92C264.5 682.05 270.83 683.97 274.73 687.61C278.41 691.04 280.31 696.56 280.69 702.13C281.69 717.02 273.52 730.78 258.21 733.72ZM264.62 726.18C273.97 720.81 276.64 710.29 275.57 700.48C274.73 692.81 269.07 686.61 260.94 687.76L245.4 689.96L245.19 731.31C251.71 730.58 258.56 729.66 264.63 726.18H264.62Z" fill="white"/>
<path d="M255.33 668.86L240.78 671.11L240.97 628.51L260.7 625.58C269.95 624.21 275.77 632.18 276.32 641.03C277.15 654.59 269.56 666.66 255.32 668.86H255.33ZM263.19 660.84C270.3 656.4 271.9 648.54 271.44 641.06C271.04 634.68 266.72 629.48 259.94 630.42L245.76 632.37L245.64 665.55C251.91 664.93 258.04 664.06 263.19 660.84Z" fill="white"/>
<path d="M436.41 673.05C432.67 674.49 427.91 674.91 424.29 675.31L424.42 645.94L436.89 645.04C442.65 644.63 445.47 651.08 445.6 656.29C445.77 662.99 443.67 670.24 436.41 673.05ZM441.34 657.36C441.29 654.81 439.75 649.93 437.55 649.85L428.71 649.51L428.6 670.26C436.35 670.2 441.48 665.79 441.33 657.37L441.34 657.36Z" fill="white"/>
<path d="M656.3 646.04C652.1 648.44 646.71 649.14 642.1 649.34L642.31 619.89L651.99 618.95C658.94 618.27 663.21 623.44 663.35 630.09C663.47 636.13 662.4 642.57 656.31 646.04H656.3ZM659.07 631.35C659.02 629.05 657.5 623.91 655.58 623.85L646.64 623.53L646.62 644.67C654.56 644.18 659.27 639.83 659.07 631.35Z" fill="white"/>
<path d="M362.37 696.62L341.82 699.35L352.52 665.52L362.37 696.62ZM356.56 692.96L352.41 679.74L347.68 694.37L356.56 692.96Z" fill="white"/>
<path d="M514.25 697.93C509.82 699.32 504.8 699.75 500.48 699.99L500.68 671.58L512 670.37C519.02 669.62 523.84 675.49 523.93 682.12C524.01 688.72 521.46 695.68 514.26 697.94L514.25 697.93ZM505.15 695.37C512.79 694.82 516.2 692.82 518.4 688.86C520.41 685.26 520.51 679.19 516.83 676.24C513.76 673.78 509.11 674.46 504.97 675.39L505.15 695.37Z" fill="white"/>
<path d="M516.83 657.45C512.19 661.08 505.87 661.56 500.78 661.77L500.89 636.29L511.02 635.24C516.17 634.71 520.36 637.91 521.01 643.2C521.58 647.89 521.17 654.03 516.82 657.44L516.83 657.45ZM505.08 656.88C510.96 657.04 514.47 655.06 515.97 651.37C517.38 647.9 517.9 642.05 514.23 639.89C512.36 638.79 507.62 639.51 505.28 640.01L505.08 656.88Z" fill="white"/>
<path d="M264.62 726.18C258.55 729.67 251.7 730.59 245.18 731.31L245.39 689.96L260.93 687.76C269.07 686.61 274.72 692.81 275.56 700.48C276.64 710.29 273.97 720.81 264.61 726.18H264.62ZM252.99 726.22C260.03 725.3 266.16 721.66 268.97 716.2C271.78 710.74 273.59 702.67 269.92 697.38C264.64 695.88 257.8 697.01 253.3 698.59L253 726.22H252.99Z" fill="black"/>
<path d="M263.19 660.84C258.04 664.06 251.91 664.93 245.64 665.55L245.76 632.37L259.94 630.42C266.72 629.49 271.04 634.68 271.44 641.06C271.9 648.54 270.3 656.4 263.19 660.84ZM253.42 660.57C264.26 658.65 269.57 649.25 266.87 639.3L253.38 640.85L253.42 660.57Z" fill="black"/>
<path d="M441.34 657.36C441.49 665.78 436.36 670.19 428.61 670.25L428.72 649.5L437.56 649.84C439.76 649.93 441.3 654.8 441.35 657.35L441.34 657.36Z" fill="black"/>
<path d="M659.07 631.35C659.26 639.83 654.56 644.18 646.62 644.67L646.64 623.53L655.58 623.85C657.5 623.92 659.02 629.05 659.07 631.35Z" fill="black"/>
<path d="M356.56 692.96L347.68 694.37L352.41 679.74L356.56 692.96Z" fill="black"/>
<path d="M505.15 695.37L504.97 675.39C509.12 674.47 513.77 673.78 516.83 676.24C520.51 679.19 520.41 685.26 518.4 688.86C516.19 692.81 512.79 694.81 505.15 695.37Z" fill="black"/>
<path d="M505.08 656.88L505.28 640.01C507.62 639.51 512.36 638.79 514.23 639.89C517.9 642.05 517.38 647.89 515.97 651.37C514.47 655.05 510.96 657.04 505.08 656.88Z" fill="black"/>
<path d="M751.83 633.38L751.08 612.24L810.29 605.24L810.11 618.18C805.09 619.71 801.37 623.07 801.36 628.28L801.27 678.32C795.05 679.28 789.28 679.63 782.65 678.9C758.59 701.15 718.87 701.59 700.53 673.62C683.98 648.38 686.62 607.37 702.15 581.36C716.34 557.59 741.28 543.61 768.97 545.36C783.09 546.25 796.13 551.4 806.51 560.93L784.27 595.54C781.62 596.38 776.83 595.32 774.99 593.15C774.79 586.24 771.83 579.08 764.81 577.22C755.26 574.69 745.68 579.23 739.7 586.79C723.08 607.83 723.71 653.07 742.29 660.78C750.68 664.26 760.77 661.72 766.67 654.52V632.03L751.83 633.38ZM756.75 628.01C763.29 627.74 766.51 627.72 771.76 628.54L771.58 655.73C765.24 664.92 753.35 669.42 742.67 666.38C717.41 659.18 717.67 607.19 735.16 584.38C741.61 575.97 750.97 571.01 761.32 571.6C772.32 572.13 778.22 579.06 780.47 591.63L800.32 561.97C786.12 551.22 768.54 547.98 751.15 551.34C729.21 555.57 711.92 570.46 702.59 590.78C690.83 616.4 689.77 655.55 709.34 676.75C727.7 696.64 763.24 693.28 781.93 672.71C786.9 674.34 791.88 674.8 796.24 673.62L796.61 626.99C796.69 617.12 807.63 616.86 804.89 610.69L756.08 616.36L756.73 628.01H756.75Z" fill="white"/>
<path d="M842.23 675.36C826.59 671.3 816.95 657.83 814.23 642.88C810.53 622.56 813.93 601.86 826.27 585.5C838.11 569.8 855.93 561.14 875.4 562.65C892.62 563.99 906.64 575.37 910.76 592.4C915.97 613.92 911.75 636.65 898.64 654.73C885.97 672.21 863.7 680.92 842.24 675.35L842.23 675.36ZM896.94 648.57C907.67 631.4 910.57 611.53 905.62 592.56C902.43 580.35 893.64 571.63 881.31 568.65C862.06 563.99 842.59 571.55 830.37 587.76C817.32 605.06 814.18 629.07 821.33 649.62C825.53 661.69 836.01 670 848.38 671.6C867.65 674.09 886.41 665.41 896.93 648.57H896.94Z" fill="white"/>
<path d="M756.75 628.01L756.1 616.36L804.91 610.69C807.66 616.86 796.71 617.12 796.63 626.99L796.26 673.62C791.9 674.8 786.92 674.35 781.95 672.71C763.26 693.28 727.72 696.64 709.36 676.75C689.79 655.55 690.85 616.4 702.61 590.78C711.94 570.46 729.23 555.57 751.17 551.34C768.56 547.99 786.14 551.22 800.34 561.97L780.49 591.63C778.23 579.06 772.33 572.13 761.34 571.6C750.99 571.02 741.63 575.97 735.18 584.38C717.68 607.19 717.43 659.19 742.69 666.38C753.37 669.42 765.26 664.92 771.6 655.73L771.78 628.54C766.53 627.71 763.31 627.74 756.77 628.01H756.75Z" fill="black"/>
<path d="M896.94 648.57C886.42 665.41 867.66 674.09 848.39 671.6C836.02 670 825.54 661.69 821.34 649.62C814.19 629.07 817.33 605.06 830.38 587.76C842.6 571.55 862.06 563.99 881.32 568.65C893.65 571.63 902.44 580.35 905.63 592.56C910.58 611.53 907.68 631.4 896.95 648.57H896.94ZM851.97 651.56C861.07 655.61 870.39 651.25 875.3 643.11C883.27 629.91 885.11 613 881.16 598.13C878.54 588.29 869.21 583.56 860.01 587.09C854.06 589.37 849.55 594.03 846.87 600.09C839.42 616.99 838.9 645.73 851.97 651.55V651.56Z" fill="black"/>
<path d="M851.97 651.56C838.9 645.74 839.42 617 846.87 600.1C849.54 594.04 854.06 589.38 860.01 587.1C869.2 583.57 878.54 588.29 881.16 598.14C885.11 613.01 883.27 629.92 875.3 643.12C870.39 651.26 861.07 655.62 851.97 651.57V651.56ZM861.49 647.92C880.22 643.43 883.54 597.54 870.47 591.7C863.39 588.54 855.09 593.39 851.25 602.39C842.91 621.94 845.18 651.82 861.49 647.92Z" fill="white"/>
<path d="M861.49 647.92C845.18 651.83 842.91 621.95 851.25 602.39C855.09 593.39 863.39 588.53 870.47 591.7C883.54 597.54 880.22 643.43 861.49 647.92ZM872.38 599.83C856.22 597.68 850.86 628.03 856.31 643.66C872.07 646.87 877.46 615.8 872.38 599.83Z" fill="black"/>
<path d="M388.948 890.425L388.944 894.115L483.044 894.214L483.048 890.524L388.948 890.425Z" fill="black"/>
<path d="M483.32 903.54H388.51V907.27H483.32V903.54Z" fill="black"/>
<path d="M826.06 685.79C826.51 691.07 829.95 710.72 856.32 714.1C857.66 714.27 858.82 715.13 859.28 716.39C859.76 717.72 859.81 719.51 857.98 721.24C854.43 724.59 829.73 733.88 826.84 765.25C826.79 765.84 826.6 766.42 826.27 766.91C825.24 768.44 822.77 770.98 820.12 765.43C816.71 758.29 813.41 728.9 791.71 728.27C790.71 728.24 789.77 727.78 789.13 727.01C787.54 725.11 785.42 721.5 789.9 719.19C790.17 719.05 790.46 718.96 790.76 718.9C794.06 718.22 815.68 712.73 819.63 685.69C819.78 684.64 820.36 683.67 821.27 683.13C822.06 682.66 823.11 682.38 824.28 682.98C825.33 683.52 825.96 684.61 826.06 685.78V685.79Z" fill="black"/>
<path d="M824.76 703.88C824.99 706.6 826.76 716.71 840.33 718.45C841.02 718.54 841.62 718.98 841.86 719.63C842.11 720.31 842.14 721.23 841.19 722.13C839.36 723.85 826.65 728.63 825.16 744.78C825.13 745.08 825.03 745.38 824.86 745.63C824.33 746.42 823.06 747.73 821.69 744.87C819.93 741.19 818.24 726.07 807.07 725.75C806.56 725.73 806.07 725.5 805.74 725.1C804.92 724.12 803.83 722.26 806.14 721.08C806.28 721.01 806.43 720.96 806.58 720.93C808.28 720.58 819.41 717.75 821.43 703.84C821.51 703.3 821.8 702.8 822.27 702.52C822.68 702.28 823.22 702.13 823.82 702.44C824.36 702.72 824.69 703.28 824.74 703.88H824.76Z" fill="white"/>
<path d="M315.17 817.89V808.56L307.05 795.72H312.3L317.52 804.49L322.63 795.72H327.79L319.64 808.59V817.89H315.18H315.17Z" fill="black"/>
<path d="M334.95 806.94C334.95 804.68 335.29 802.79 335.96 801.25C336.46 800.12 337.15 799.11 338.02 798.21C338.89 797.31 339.85 796.65 340.89 796.21C342.27 795.63 343.86 795.33 345.67 795.33C348.94 795.33 351.55 796.34 353.51 798.37C355.47 800.4 356.45 803.22 356.45 806.83C356.45 810.44 355.48 813.21 353.53 815.23C351.58 817.25 348.98 818.26 345.72 818.26C342.46 818.26 339.8 817.25 337.85 815.24C335.9 813.23 334.93 810.46 334.93 806.93L334.95 806.94ZM339.57 806.79C339.57 809.3 340.15 811.2 341.31 812.5C342.47 813.8 343.94 814.44 345.73 814.44C347.52 814.44 348.98 813.8 350.12 812.51C351.26 811.22 351.84 809.3 351.84 806.72C351.84 804.14 351.28 802.28 350.17 801.03C349.06 799.78 347.58 799.15 345.73 799.15C343.88 799.15 342.4 799.78 341.27 801.05C340.14 802.32 339.58 804.22 339.58 806.78L339.57 806.79Z" fill="black"/>
<path d="M365.78 795.72H370.26V807.73C370.26 809.64 370.32 810.87 370.43 811.44C370.62 812.35 371.08 813.08 371.8 813.63C372.52 814.18 373.51 814.45 374.76 814.45C376.01 814.45 376.99 814.19 377.63 813.67C378.28 813.15 378.66 812.51 378.79 811.76C378.92 811.01 378.99 809.75 378.99 807.99V795.72H383.47V807.37C383.47 810.03 383.35 811.91 383.11 813.01C382.87 814.11 382.42 815.04 381.77 815.79C381.12 816.55 380.25 817.15 379.16 817.6C378.07 818.05 376.65 818.27 374.89 818.27C372.77 818.27 371.17 818.02 370.07 817.54C368.98 817.05 368.11 816.42 367.48 815.63C366.84 814.85 366.43 814.03 366.22 813.17C365.93 811.9 365.78 810.02 365.78 807.54V795.71V795.72Z" fill="black"/>
<path d="M394.05 817.89V795.71H403.47C405.84 795.71 407.56 795.91 408.64 796.31C409.71 796.71 410.57 797.42 411.22 798.44C411.87 799.46 412.19 800.62 412.19 801.93C412.19 803.59 411.7 804.97 410.72 806.05C409.74 807.13 408.28 807.82 406.33 808.1C407.3 808.66 408.1 809.28 408.73 809.96C409.36 810.64 410.21 811.84 411.28 813.56L413.99 817.89H408.64L405.4 813.07C404.25 811.34 403.46 810.26 403.04 809.81C402.62 809.36 402.17 809.05 401.69 808.89C401.22 808.72 400.46 808.64 399.44 808.64H398.53V817.9H394.05V817.89ZM398.53 805.1H401.84C403.99 805.1 405.33 805.01 405.86 804.83C406.39 804.65 406.81 804.34 407.12 803.89C407.43 803.44 407.57 802.89 407.57 802.23C407.57 801.48 407.37 800.88 406.97 800.42C406.57 799.96 406.01 799.67 405.28 799.55C404.92 799.5 403.83 799.47 402.01 799.47H398.52V805.1H398.53Z" fill="black"/>
<path d="M435.59 810.68L439.95 810.26C440.21 811.72 440.74 812.8 441.55 813.48C442.35 814.17 443.43 814.51 444.79 814.51C446.23 814.51 447.32 814.21 448.05 813.59C448.78 812.98 449.15 812.27 449.15 811.45C449.15 810.93 449 810.48 448.69 810.11C448.38 809.74 447.85 809.42 447.08 809.15C446.56 808.97 445.36 808.65 443.5 808.18C441.1 807.59 439.42 806.85 438.45 805.99C437.09 804.77 436.41 803.28 436.41 801.53C436.41 800.4 436.73 799.34 437.37 798.36C438.01 797.38 438.93 796.63 440.14 796.11C441.35 795.59 442.8 795.34 444.5 795.34C447.28 795.34 449.38 795.95 450.78 797.17C452.19 798.39 452.93 800.02 453 802.06L448.52 802.26C448.33 801.12 447.92 800.3 447.29 799.8C446.66 799.3 445.71 799.05 444.45 799.05C443.19 799.05 442.13 799.32 441.39 799.85C440.92 800.19 440.68 800.65 440.68 801.23C440.68 801.75 440.9 802.2 441.35 802.58C441.91 803.05 443.29 803.55 445.46 804.06C447.64 804.57 449.25 805.11 450.29 805.66C451.33 806.21 452.15 806.96 452.74 807.91C453.33 808.86 453.63 810.04 453.63 811.44C453.63 812.71 453.28 813.9 452.57 815.01C451.86 816.12 450.87 816.94 449.57 817.48C448.28 818.02 446.67 818.29 444.74 818.29C441.94 818.29 439.78 817.64 438.28 816.35C436.78 815.05 435.88 813.17 435.59 810.68Z" fill="black"/>
<path d="M468.24 817.89V799.47H461.66V795.72H479.28V799.47H472.72V817.89H468.24Z" fill="black"/>
<path d="M493.85 817.89V808.56L485.73 795.72H490.98L496.2 804.49L501.31 795.72H506.47L498.32 808.59V817.89H493.86H493.85Z" fill="black"/>
<path d="M514.66 817.89V795.9H519.14V814.16H530.27V817.9H514.66V817.89Z" fill="black"/>
<path d="M539.32 817.89V795.71H555.76V799.46H543.79V804.38H554.92V808.12H543.79V814.16H556.18V817.9H539.31L539.32 817.89Z" fill="black"/>
<path d="M565.7 813.64H569.95V816.68C569.95 817.91 569.84 818.88 569.63 819.59C569.42 820.3 569.02 820.94 568.43 821.5C567.84 822.06 567.09 822.51 566.18 822.83L565.35 821.08C566.21 820.8 566.82 820.41 567.18 819.92C567.54 819.43 567.73 818.75 567.75 817.89H565.69V813.64H565.7Z" fill="black"/>
<path d="M628.07 817.89H623.2L621.26 812.85H612.4L610.57 817.89H605.82L614.46 795.71H619.19L628.07 817.89ZM619.83 809.12L616.77 800.89L613.77 809.12H619.82H619.83Z" fill="black"/>
<path d="M636.35 817.89V795.71H640.71L649.79 810.52V795.71H653.95V817.89H649.46L640.52 803.43V817.89H636.36H636.35Z" fill="black"/>
<path d="M670.35 817.89V808.56L662.23 795.72H667.48L672.7 804.49L677.81 795.72H682.97L674.82 808.59V817.89H670.36H670.35Z" fill="black"/>
<path d="M694.19 817.89L688.9 795.71H693.48L696.82 810.94L700.87 795.71H706.19L710.08 811.2L713.48 795.71H717.99L712.6 817.89H707.85L703.43 801.31L699.03 817.89H694.17H694.19Z" fill="black"/>
<path d="M726.16 817.89V795.71H730.64V804.44H739.41V795.71H743.89V817.89H739.41V808.19H730.64V817.89H726.16Z" fill="black"/>
<path d="M754.37 817.89V795.71H770.81V799.46H758.84V804.38H769.97V808.12H758.84V814.16H771.23V817.9H754.36L754.37 817.89Z" fill="black"/>
<path d="M780.9 817.89V795.71H790.32C792.69 795.71 794.41 795.91 795.49 796.31C796.56 796.71 797.42 797.42 798.07 798.44C798.72 799.46 799.04 800.62 799.04 801.93C799.04 803.59 798.55 804.97 797.57 806.05C796.59 807.13 795.13 807.82 793.18 808.1C794.15 808.66 794.95 809.28 795.58 809.96C796.21 810.64 797.06 811.84 798.13 813.56L800.84 817.89H795.49L792.25 813.07C791.1 811.34 790.31 810.26 789.89 809.81C789.47 809.36 789.02 809.05 788.54 808.89C788.07 808.72 787.31 808.64 786.29 808.64H785.38V817.9H780.9V817.89ZM785.38 805.1H788.69C790.84 805.1 792.18 805.01 792.71 804.83C793.24 804.65 793.66 804.34 793.97 803.89C794.28 803.44 794.42 802.89 794.42 802.23C794.42 801.48 794.22 800.88 793.82 800.42C793.42 799.96 792.86 799.67 792.13 799.55C791.77 799.5 790.68 799.47 788.86 799.47H785.37V805.1H785.38Z" fill="black"/>
<path d="M809.11 817.89V795.71H825.55V799.46H813.58V804.38H824.71V808.12H813.58V814.16H825.97V817.9H809.1L809.11 817.89Z" fill="black"/>
</svg>
