<svg width="122" height="122" viewBox="0 0 122 122" fill="none" xmlns="http://www.w3.org/2000/svg">
<path d="M121.82 60.91C121.82 94.55 94.55 121.82 60.91 121.82C27.27 121.82 0 94.55 0 60.91C0 27.27 27.27 0 60.91 0C94.55 0 121.82 27.27 121.82 60.91ZM115.42 60.86C115.42 30.73 91 6.31 60.87 6.31C30.74 6.31 6.32001 30.73 6.32001 60.86C6.32001 90.99 30.74 115.41 60.87 115.41C91 115.41 115.42 90.99 115.42 60.86Z" fill="#E9E4D6"/>
<path d="M115.42 60.86C115.42 90.99 91 115.41 60.87 115.41C30.74 115.41 6.32001 90.99 6.32001 60.86C6.32001 30.73 30.74 6.31 60.87 6.31C91 6.31 115.42 30.73 115.42 60.86ZM111.86 60.87C111.86 32.71 89.03 9.87 60.86 9.87C32.69 9.87 9.86002 32.7 9.86002 60.87C9.86002 89.04 32.69 111.87 60.86 111.87C89.03 111.87 111.86 89.04 111.86 60.87Z" fill="#4D563E"/>
<path d="M111.86 60.87C111.86 89.03 89.03 111.87 60.86 111.87C32.69 111.87 9.86002 89.04 9.86002 60.87C9.86002 32.7 32.69 9.87 60.86 9.87C89.03 9.87 111.86 32.7 111.86 60.87ZM50.75 77.47C58.44 77.42 63.76 71.42 64.29 65.19C64.88 58.3 61.46 52.98 53.87 50.46C59.56 47.96 62.49 43.98 61.66 38.15C61.12 34.35 57.36 28.95 52.07 28.88L25.97 28.55C28.88 31.09 30.8 33.1599 30.79 36.5699L30.68 72.69L26.07 77.63L50.76 77.47H50.75ZM92.13 60.28L95.05 49.31C84.34 43.73 71.41 44.02 63.11 52.35L67.2 60.99C68.94 55.01 73.91 51.15 79 50.98C85.31 50.77 88.73 53.23 92.13 60.28ZM57.82 79.24C60.68 92.25 74.79 99.44 86.4 93.63C88.99 92.56 91.43 92 94.84 91.55L94.81 75.3C94.81 74.12 96.98 71.61 97.97 70.12L80.81 70.15C81.13 72.59 83.48 73.31 85.67 73.75C86.8 77.66 86.98 84.09 86.13 88.13C81.29 91.68 74.4 90.72 70.65 86.4C66.9 82.08 66 75.81 66.12 70.83L57.82 79.24Z" fill="#E9E4D6"/>
<path d="M51.38 71.1399C47.95 73.1499 43.24 72.76 39.33 72.5L39.37 54.04C42.83 53.8 48.2 53.46 51.62 55.49C56.87 58.6 57 67.8499 51.39 71.1399H51.38Z" fill="#E9E4D6"/>
<path d="M49.81 47.66C46.98 49.5 42.03 49.46 39.28 49.28L39.26 33.14C42.48 32.77 47.37 32.64 50.33 34.74C54.16 37.46 54.17 44.82 49.8 47.66H49.81Z" fill="#E9E4D6"/>
</svg>
